<!--?xml version="1.0" encoding="us-ascii" standalone="no"?--><svg xmlns="http://www.w3.org/2000/svg" xmlns:xlink="http://www.w3.org/1999/xlink" contentstyletype="text/css" height="343px" preserveAspectRatio="none" style="width:1078px;height:343px;background:#FFFFFF;" version="1.1" viewBox="0 0 1078 343" width="1078px" zoomAndPan="magnify"><defs></defs><g><!--entity Student--><g id="elem_Student"><ellipse cx="76" cy="137.5" fill="#F1F1F1" rx="8" ry="8" style="stroke:#181818;stroke-width:0.5;"></ellipse><path d="M76,145.5 L76,172.5 M63,153.5 L89,153.5 M76,172.5 L63,187.5 M76,172.5 L89,187.5 " fill="none" style="stroke:#181818;stroke-width:0.5;"></path><text fill="#000000" font-family="sans-serif" font-size="14" lengthAdjust="spacing" textLength="140" x="6" y="201.9951">Prospective Student</text></g><!--entity Guide--><g id="elem_Guide"><ellipse cx="524.5" cy="137.5" fill="#F1F1F1" rx="8" ry="8" style="stroke:#181818;stroke-width:0.5;"></ellipse><path d="M524.5,145.5 L524.5,172.5 M511.5,153.5 L537.5,153.5 M524.5,172.5 L511.5,187.5 M524.5,172.5 L537.5,187.5 " fill="none" style="stroke:#181818;stroke-width:0.5;"></path><text fill="#000000" font-family="sans-serif" font-size="14" lengthAdjust="spacing" textLength="253" x="398" y="201.9951">University Compare and Travel Guide</text></g><!--entity Database--><g id="elem_Database"><rect fill="#F1F1F1" height="36.2969" rx="2.5" ry="2.5" style="stroke:#181818;stroke-width:0.5;" width="156" x="916" y="7"></rect><text fill="#000000" font-family="sans-serif" font-size="14" lengthAdjust="spacing" textLength="136" x="926" y="29.9951">University Database</text></g><!--entity TitleDesc--><g id="elem_TitleDesc"><rect fill="#F1F1F1" height="36.2969" rx="2.5" ry="2.5" style="stroke:#181818;stroke-width:0.5;" width="132" x="928" y="78"></rect><text fill="#000000" font-family="sans-serif" font-size="14" lengthAdjust="spacing" textLength="112" x="938" y="100.9951">Title Description</text></g><!--entity MeritDemerit--><g id="elem_MeritDemerit"><rect fill="#F1F1F1" height="36.2969" rx="2.5" ry="2.5" style="stroke:#181818;stroke-width:0.5;" width="143" x="922.5" y="149"></rect><text fill="#000000" font-family="sans-serif" font-size="14" lengthAdjust="spacing" textLength="123" x="932.5" y="171.9951">Merit and Demerit</text></g><!--entity MySQL--><g id="elem_MySQL"><path d="M961,230.5 C961,220.5 994,220.5 994,220.5 C994,220.5 1027,220.5 1027,230.5 L1027,255.7969 C1027,265.7969 994,265.7969 994,265.7969 C994,265.7969 961,265.7969 961,255.7969 L961,230.5 " fill="#F1F1F1" style="stroke:#181818;stroke-width:0.5;"></path><path d="M961,230.5 C961,240.5 994,240.5 994,240.5 C994,240.5 1027,240.5 1027,230.5 " fill="none" style="stroke:#181818;stroke-width:0.5;"></path><text fill="#000000" font-family="sans-serif" font-size="14" lengthAdjust="spacing" textLength="46" x="971" y="257.4951">MySQL</text></g><!--entity HTMLPHP--><g id="elem_HTMLPHP"><rect fill="#F1F1F1" height="36.2969" rx="2.5" ry="2.5" style="stroke:#181818;stroke-width:0.5;" width="91" x="948.5" y="301"></rect><text fill="#000000" font-family="sans-serif" font-size="14" lengthAdjust="spacing" textLength="71" x="958.5" y="323.9951">HTML/PHP</text></g><!--link Student to Guide--><g id="link_Student_Guide"><path d="M146.28,167.15 C211.7,167.15 311.52,167.15 392.04,167.15 " fill="none" id="Student-to-Guide" style="stroke:#181818;stroke-width:1.0;"></path><polygon fill="#181818" points="396.81,167.15,387.81,163.15,391.81,167.15,387.81,171.15,396.81,167.15" style="stroke:#181818;stroke-width:1.0;"></polygon><text fill="#000000" font-family="sans-serif" font-size="13" lengthAdjust="spacing" textLength="119" x="212.5" y="163.2169">Access Application</text></g><!--link Guide to Student--><g id="link_Guide_Student"><path d="M397.68,189.12 C387.66,190.34 377.68,191.38 368,192.15 C282.94,198.95 260.68,202.68 176,192.15 C168.14,191.17 160.01,189.78 151.93,188.13 " fill="none" id="Guide-to-Student" style="stroke:#181818;stroke-width:1.0;"></path><polygon fill="#181818" points="147.36,186.96,155.3429,192.7283,152.2527,187.9901,156.991,184.8999,147.36,186.96" style="stroke:#181818;stroke-width:1.0;"></polygon><text fill="#000000" font-family="sans-serif" font-size="13" lengthAdjust="spacing" textLength="190" x="177" y="188.2169">Display University Information</text></g><!--link Guide to Database--><g id="link_Guide_Database"><path d="M591.49,128.63 C618.51,114.19 650.54,98.74 681,88.15 C756.49,61.9 846.27,45.2 910.1,35.64 " fill="none" id="Guide-to-Database" style="stroke:#181818;stroke-width:1.0;"></path><polygon fill="#181818" points="914.8,34.8,905.3055,32.182,909.8555,35.5431,906.4944,40.0932,914.8,34.8" style="stroke:#181818;stroke-width:1.0;"></polygon><text fill="#000000" font-family="sans-serif" font-size="13" lengthAdjust="spacing" textLength="154" x="706.5" y="37.2169">Retrieve University Data</text></g><!--link Guide to TitleDesc--><g id="link_Guide_TitleDesc"><path d="M651.08,146.82 C661.2,145.22 671.27,143.65 681,142.15 C763.6,129.42 858.62,115.52 921.89,106.37 " fill="none" id="Guide-to-TitleDesc" style="stroke:#181818;stroke-width:1.0;"></path><polygon fill="#181818" points="926.53,105.55,917.0504,102.8783,921.5814,106.2651,918.1946,110.7961,926.53,105.55" style="stroke:#181818;stroke-width:1.0;"></polygon><text fill="#000000" font-family="sans-serif" font-size="13" lengthAdjust="spacing" textLength="81" x="743" y="109.2169">Access Page</text></g><!--link Guide to MeritDemerit--><g id="link_Guide_MeritDemerit"><path d="M651.4,167.15 C735.83,167.15 844.32,167.15 916.13,167.15 " fill="none" id="Guide-to-MeritDemerit" style="stroke:#181818;stroke-width:1.0;"></path><polygon fill="#181818" points="921.1,167.15,912.1,163.15,916.1,167.15,912.1,171.15,921.1,167.15" style="stroke:#181818;stroke-width:1.0;"></polygon><text fill="#000000" font-family="sans-serif" font-size="13" lengthAdjust="spacing" textLength="81" x="743" y="163.2169">Access Page</text></g><!--link Guide to MySQL--><g id="link_Guide_MySQL"><path d="M651.4,187.62 C752.99,204.13 889.4,226.31 954.84,236.95 " fill="none" id="Guide-to-MySQL" style="stroke:#181818;stroke-width:1.0;"></path><polygon fill="#181818" points="959.57,237.88,951.3247,232.4934,954.6342,237.0811,950.0465,240.3907,959.57,237.88" style="stroke:#181818;stroke-width:1.0;"></polygon><text fill="#000000" font-family="sans-serif" font-size="13" lengthAdjust="spacing" textLength="111" x="728" y="189.2169">Access Database</text></g><!--link Guide to HTMLPHP--><g id="link_Guide_HTMLPHP"><path d="M589.18,205.63 C616.66,220.93 649.64,237.6 681,249.15 C770.07,281.97 879.34,302.17 942.1,311.98 " fill="none" id="Guide-to-HTMLPHP" style="stroke:#181818;stroke-width:1.0;"></path><polygon fill="#181818" points="947.02,312.89,938.7445,307.55,942.0798,312.119,937.5108,315.4543,947.02,312.89" style="stroke:#181818;stroke-width:1.0;"></polygon><text fill="#000000" font-family="sans-serif" font-size="13" lengthAdjust="spacing" textLength="203" x="682" y="245.2169">Access Programming Language</text></g><!--SRC=[NP71ReCm38RlUGgBUxLx3vEg8QsJgCHMzW1US5aaI28dLEBjbmHIifvmxE_t_oUCTFFW3R0QVZtqYabwPRH0wGr3rR9nDhRk15S_zwHz1UXodR5l7G1soY_mPYQBJ82wXuxnJYEypwgd94kL4D44zJ3IFsMD7d_GhMG-2B5PmU7mkkhX22SfoJauMJigYIdmEefGbWRkYpmh2jcVR0ewhpz2hPmTSIdP3tqpFAq6PUfE-V2foKbMDavJvjIDpHAz42kVNgEcATO9JTsj8OeqZnNx9LiSg21AvHCa-dppwh9SFvlLALPbe7DtQLxQSvkcyH3gCa8Ix9iVFs8dDb7XpcPWd2Qb1sY2pHpI_040]--></g></svg>